<?xml version="1.0" encoding="UTF-8" standalone="no"?>
<svg
   xmlns:dc="http://purl.org/dc/elements/1.1/"
   xmlns:cc="http://creativecommons.org/ns#"
   xmlns:rdf="http://www.w3.org/1999/02/22-rdf-syntax-ns#"
   xmlns:svg="http://www.w3.org/2000/svg"
   xmlns="http://www.w3.org/2000/svg"
   xml:space="preserve"
   enable-background="new 0 0 170.08 70.87"
   viewBox="0 0 169.89392 70.711599"
   height="70.711601"
   width="169.89392"
   y="0px"
   x="0px"
   id="Layer_1"
   version="1.1"><metadata
   id="metadata188"><rdf:RDF><cc:Work
       rdf:about=""><dc:format>image/svg+xml</dc:format><dc:type
         rdf:resource="http://purl.org/dc/dcmitype/StillImage" /><dc:title></dc:title></cc:Work></rdf:RDF></metadata><defs
   id="defs186" />
<g
   transform="translate(-0.18608315,0.02767854)"
   id="g4714"><rect
     style="fill:#013755;fill-opacity:1"
     id="rect190"
     width="169.89392"
     height="70.711601"
     x="0.18608315"
     y="-0.027678542" /><g
     id="g181">
	<g
   id="g159">
		<path
   style="fill:#ffffff"
   d="m 56.912,19.227 c 0.26,-0.968 0.889,-1.301 1.818,-1.052 0.971,0.26 1.391,0.872 1.13,1.842 L 48.195,63.548 c -0.258,0.97 -0.887,1.3 -1.858,1.04 -0.969,-0.26 -1.348,-0.86 -1.089,-1.83 z"
   id="path157" />
	</g>
	<g
   id="g163">
		<path
   style="fill:#ffffff"
   d="m 81.674,19.227 c 0.261,-0.97 0.89,-1.3 1.82,-1.05 0.969,0.26 1.389,0.871 1.128,1.84 L 72.958,63.548 c -0.26,0.97 -0.888,1.3 -1.858,1.038 -0.969,-0.259 -1.35,-0.858 -1.09,-1.828 z"
   id="path161" />
	</g>
	<g
   id="g177">
		<path
   style="fill:#ffffff"
   d="m 8,12.973 c 0,-1.004 0.482,-1.485 1.445,-1.485 1.003,0 1.485,0.481 1.485,1.485 v 25.373 h 12.887 c 1.004,0 1.485,0.482 1.485,1.445 0,1.004 -0.481,1.485 -1.485,1.485 H 9.967 C 8.643,41.276 8,40.514 8,38.988 Z"
   id="path165" />
		<path
   style="fill:#ffffff"
   d="m 36.117,18.433 c 5.339,0 8.149,3.211 8.149,7.266 v 14.414 c 0,0.763 -0.522,1.485 -1.485,1.485 -0.963,0 -1.445,-0.683 -1.485,-1.445 -0.04,-0.762 -0.04,-1.004 -0.04,-1.365 -1.727,1.847 -4.296,2.811 -6.865,2.811 -3.934,0 -7.708,-2.208 -7.708,-6.706 0,-4.697 4.296,-7.106 8.511,-7.106 2.289,0 4.737,0.683 6.062,2.007 V 25.98 c 0,-2.77 -2.249,-4.617 -6.022,-4.617 -2.61,0 -4.296,0.963 -5.541,0.963 -0.682,0 -1.365,-0.321 -1.365,-1.245 0,-0.522 0.441,-1.164 1.124,-1.445 1.767,-0.722 3.895,-1.203 6.665,-1.203 z m -1.204,20.354 c 3.051,0 6.303,-1.605 6.303,-4.376 0,-2.449 -3.051,-3.854 -6.022,-3.854 -2.81,0 -5.5,1.285 -5.5,4.095 -10e-4,2.891 2.489,4.135 5.219,4.135 z"
   id="path167" />
		<path
   style="fill:#ffffff"
   d="m 92.853,9.761 c 1.124,0 2.007,0.883 2.007,2.007 0,1.124 -0.883,2.007 -2.007,2.007 -1.124,0 -2.007,-0.883 -2.007,-2.007 0,-1.124 0.883,-2.007 2.007,-2.007 z m -1.406,10.197 c 0,-1.004 0.521,-1.485 1.485,-1.485 1.004,0 1.565,0.481 1.565,1.485 v 19.833 c 0,1.004 -0.521,1.485 -1.525,1.485 -1.004,0 -1.525,-0.481 -1.525,-1.485 z"
   id="path169" />
		<path
   style="fill:#ffffff"
   d="m 102.072,20.239 c 0,-1.043 0.481,-1.565 1.445,-1.565 1.003,0 1.484,0.522 1.484,1.565 v 1.526 c 1.325,-2.409 3.654,-3.493 6.022,-3.493 3.854,0 7.828,2.89 7.828,7.667 v 13.892 c 0,0.964 -0.481,1.445 -1.485,1.445 -0.963,0 -1.445,-0.481 -1.445,-1.445 V 27.224 c 0,-4.055 -2.689,-6.021 -5.379,-6.021 -2.771,0 -5.541,2.047 -5.541,6.021 v 12.607 c 0,0.964 -0.481,1.445 -1.484,1.445 -0.964,0 -1.445,-0.481 -1.445,-1.445 z"
   id="path171" />
		<path
   style="fill:#ffffff"
   d="m 133.184,18.433 c 5.34,0 8.15,3.211 8.15,7.266 v 14.414 c 0,0.763 -0.522,1.485 -1.486,1.485 -0.963,0 -1.445,-0.683 -1.484,-1.445 -0.041,-0.763 -0.041,-1.004 -0.041,-1.365 -1.727,1.847 -4.295,2.811 -6.865,2.811 -3.934,0 -7.707,-2.208 -7.707,-6.706 0,-4.697 4.295,-7.106 8.51,-7.106 2.289,0 4.738,0.683 6.062,2.007 V 25.98 c 0,-2.77 -2.248,-4.617 -6.021,-4.617 -2.609,0 -4.296,0.963 -5.54,0.963 -0.683,0 -1.365,-0.321 -1.365,-1.245 0,-0.522 0.441,-1.164 1.124,-1.445 1.765,-0.722 3.893,-1.203 6.663,-1.203 z m -1.205,20.354 c 3.052,0 6.303,-1.605 6.303,-4.376 0,-2.449 -3.051,-3.854 -6.022,-3.854 -2.81,0 -5.499,1.285 -5.499,4.095 0,2.891 2.489,4.135 5.218,4.135 z"
   id="path173" />
		<path
   style="fill:#ffffff"
   d="m 154.689,38.747 c 2.168,0 4.938,-0.884 4.938,-3.494 0,-1.967 -2.488,-3.091 -4.617,-3.854 -3.652,-1.325 -8.068,-3.091 -8.068,-6.503 0,-4.537 3.813,-6.544 8.068,-6.544 2.088,0 4.297,0.401 6.223,1.445 0.522,0.281 0.764,0.843 0.764,1.405 0,0.923 -0.603,1.405 -1.365,1.405 -0.281,0 -0.602,-0.08 -0.883,-0.241 -0.964,-0.562 -2.932,-1.044 -4.818,-1.044 -2.368,0 -4.816,0.843 -4.816,3.212 0,1.847 3.131,2.81 6.142,4.055 3.292,1.365 6.664,2.77 6.664,6.383 0,4.939 -4.335,6.745 -8.31,6.745 -2.891,0 -5.219,-0.964 -7.428,-2.368 -0.361,-0.241 -0.521,-0.723 -0.521,-1.205 0,-1.123 0.562,-1.646 1.324,-1.646 0.361,0 0.764,0.161 1.164,0.441 1.405,0.924 3.291,1.808 5.539,1.808 z"
   id="path175" />
	</g>
	<path
   style="fill:#ffffff"
   d="m 67.599,24.514 c 0.261,-0.969 0.89,-1.3 1.819,-1.05 0.971,0.26 1.389,0.871 1.129,1.84 l -5.135,19.163 c -0.26,0.97 -0.889,1.3 -1.858,1.039 -0.97,-0.26 -1.349,-0.859 -1.089,-1.83 z"
   id="path179" />
</g></g>
</svg>